<?xml version="1.0" encoding="UTF-8"?>
<!DOCTYPE svg PUBLIC "-//W3C//DTD SVG 1.1//EN" "http://www.w3.org/Graphics/SVG/1.1/DTD/svg11.dtd">
<!-- Creator: CorelDRAW X7 -->
<svg xmlns="http://www.w3.org/2000/svg" xml:space="preserve" width="4.0733mm" height="5.6616mm" version="1.1" fill="#FFFFF8" style="shape-rendering:geometricPrecision; text-rendering:geometricPrecision; image-rendering:optimizeQuality; fill-rule:evenodd; clip-rule:evenodd" 
viewBox="0 0 407 566"
 xmlns:xlink="http://www.w3.org/1999/xlink">
 <defs>
 </defs>
 <g id="Layer_x0020_1">
  <metadata id="CorelCorpID_0Corel-Layer"/>
  <path class="fil0" d="M20 292c-49,-101 -6,-223 95,-272 101,-49 223,-6 272,95 49,101 7,223 -95,272 -101,49 -223,7 -272,-95zm31 -14c42,87 140,122 227,80 88,-42 119,-141 76,-228 -42,-88 -137,-121 -224,-78 -87,42 -121,139 -79,226z"/>
  <path class="fil1" d="M322 544l-66 -136c27,-7 53,-21 76,-37l65 134c10,21 1,46 -20,56 -21,11 -45,4 -55,-17z"/>
 </g>
</svg>
