<svg xmlns="http://www.w3.org/2000/svg" version="1.1" xmlns:xlink="http://www.w3.org/1999/xlink" xmlns:svgjs="http://svgjs.dev/svgjs" width="2000" height="1100" preserveAspectRatio="none" viewBox="0 0 2000 1100"><g mask="url(&quot;#SvgjsMask1012&quot;)" fill="none"><rect width="2000" height="1100" x="0" y="0" fill="rgba(0, 50, 41, 1)"></rect><path d="M0 0L315.93 0L0 270.51z" fill="rgba(255, 255, 255, .1)"></path><path d="M0 270.51L315.93 0L695.37 0L0 461.25z" fill="rgba(255, 255, 255, .075)"></path><path d="M0 461.25L695.37 0L1084.3600000000001 0L0 621z" fill="rgba(255, 255, 255, .05)"></path><path d="M0 621L1084.3600000000001 0L1122.41 0L0 627.51z" fill="rgba(255, 255, 255, .025)"></path><path d="M2000 1100L1029.6599999999999 1100L2000 1046.94z" fill="rgba(0, 0, 0, .1)"></path><path d="M2000 1046.94L1029.6599999999999 1100L678.4799999999998 1100L2000 809.6300000000001z" fill="rgba(0, 0, 0, .075)"></path><path d="M2000 809.63L678.48 1100L532.6600000000001 1100L2000 643.51z" fill="rgba(0, 0, 0, .05)"></path><path d="M2000 643.51L532.6600000000001 1100L196.5300000000001 1100L2000 376.78999999999996z" fill="rgba(0, 0, 0, .025)"></path></g><defs><mask id="SvgjsMask1012"><rect width="2000" height="1100" fill="#ffffff"></rect></mask></defs></svg>